<svg xmlns="http://www.w3.org/2000/svg" viewBox="0 0 640 640"><circle cx="320" cy="320" r="312" fill="#f0ede8"/><g fill="#080808"><path d="M3080 6084 c-433 -40 -710 -115 -1055 -284 -488 -239 -898 -632 -1174 -1126 -165 -297 -265 -596 -324 -974 -39 -253 -26 -713 27 -952 l11 -51 39 63 c49 79 213 298 336 450 119 145 434 462 565 567 387 309 808 529 1138 595 131 26 384 28 497 4 371 -79 635 -305 696 -596 46 -215 -36 -469 -200 -624 -140 -130 -363 -226 -568 -243 -79 -7 -83 0 -34 54 61 69 148 187 171 234 34 66 55 157 55 236 0 159 -118 286 -300 324 -120 25 -321 -3 -490 -70 -295 -116 -685 -358 -980 -610 -259 -221 -596 -579 -757 -803 l-31 -44 39 -87 c170 -376 474 -766 801 -1028 399 -319 825 -507 1338 -590 180 -30 563 -33 740 -6 342 53 578 127 856 271 818 423 1393 1234 1521 2147 26 190 24 586 -6 779 -26 175 -59 317 -107 465 -47 143 -125 329 -134 318 -4 -4 -15 -28 -24 -53 -51 -134 -253 -483 -434 -750 -478 -707 -996 -1213 -1507 -1472 -299 -152 -519 -212 -775 -211 -156 0 -239 18 -374 81 -187 88 -315 206 -404 372 -114 211 -114 482 -1 708 94 186 308 353 520 406 60 15 149 22 149 12 0 -2 -40 -44 -88 -93 -217 -218 -250 -466 -84 -632 51 -51 147 -103 222 -120 163 -38 446 14 713 130 557 241 1245 841 1669 1455 81 117 278 428 278 438 0 17 -148 225 -237 331 -251 302 -554 541 -898 706 -272 131 -555 214 -860 255 -110 14 -450 26 -535 18z" transform="translate(0,640) scale(0.1,-0.1)"/></g></svg>